<?xml version="1.0" encoding="utf-8"?>
<!-- Generator: Adobe Illustrator 22.0.0, SVG Export Plug-In . SVG Version: 6.00 Build 0)  -->
<svg version="1.1" id="Layer_1" xmlns="http://www.w3.org/2000/svg" xmlns:xlink="http://www.w3.org/1999/xlink" x="0px" y="0px"
	 viewBox="0 0 200 82" style="enable-background:new 0 0 200 82;" xml:space="preserve">
<style type="text/css">
	.st0{fill:#020202;}
	.st1{fill:#030303;}
	.st2{fill:#010101;}
	.st3{fill:#040404;}
	.st4{fill:#FEFEFE;}
	.st5{fill:#FDFDFD;}
	.st6{fill:#050505;}
	.st7{fill:#111111;}
</style>
<g>
	<path class="st0" d="M39,36.9c-0.1-1.4-1.8-2.3-3.2-3.1c-1.3,1-3.1,1.9-3,3.3c0.1,1.5,1.6,3.3,3.2,3.2C37.4,40.1,39.2,38.5,39,36.9
		z M35.6,38.2c-0.5-0.1-1.1-0.6-0.9-1.2c0.1-0.5,0.7-0.8,1-1.1c0.7,0.3,1.3,0.6,1.2,1.2C36.9,37.8,36.3,38.3,35.6,38.2z"/>
	<path class="st0" d="M46.7,35.7c-3.1-3.1-6.3-6.2-9.5-9.4c-1-1-1.8-1.2-2.9-0.1c-3.1,3.2-6.3,6.4-9.4,9.4c-1.1,1.1-1.1,1.8,0,2.9
		c3.1,3.1,6.2,6.1,9.2,9.3c1.2,1.3,2.1,1.2,3.3,0c3-3.1,6-6,9-9.1c0.5-0.5,1.1-0.9,1.2-1.9C47.4,36.6,47.1,36.1,46.7,35.7z
		 M44.6,38.4c-2.6,2.5-5.1,5-7.6,7.6c-0.3,0.3-0.7,0.6-1.1,1.1c-0.5-0.5-0.9-0.8-1.3-1.2c-2.5-2.5-4.9-5-7.4-7.4
		c-1.2-1.1-1-1.7,0.1-2.7c2.5-2.4,5-4.9,7.4-7.4c0.9-1,1.5-1.1,2.5,0c2.5,2.6,5,5.1,7.6,7.6C45.7,36.9,45.5,37.4,44.6,38.4z"/>
	<path class="st0" d="M55.1,35.5c-6-5.8-11.8-11.8-17.7-17.6c-0.5-0.5-0.9-1.1-1.8-1.1c-0.3,0.2-0.7,0.4-1,0.8
		c-6.1,6.1-12.2,12.2-18.3,18.3c-1.2,1.2-0.7,1.9,0.2,2.9c5.9,5.9,11.8,11.8,17.6,17.7c1.4,1.4,2.2,1.2,3.5-0.1
		c5.8-5.9,11.6-11.7,17.4-17.5C56.3,37.5,56.4,36.8,55.1,35.5z M53.1,38.4c-5.3,5.4-10.7,10.7-16,16.1c-1.1,1.2-1.7,0.9-2.7-0.1
		C29.2,49,23.9,43.7,18.6,38.5c-1.3-1.2-1-1.9,0.1-3c5.3-5.2,10.5-10.4,15.6-15.6c1.1-1.1,1.7-1.4,3-0.1
		c5.2,5.4,10.5,10.6,15.8,15.9c0.4,0.4,0.8,0.8,1.1,1.2C54.1,37.7,53.5,38,53.1,38.4z"/>
	<path class="st0" d="M63.4,43.4c-2.3-1.6-1.9-3.1,0.1-4.6c1.3-0.9,1.6-1.8,0.2-3.2C54.9,26.8,46.2,18,37.4,9.3
		c-0.5-0.5-0.9-1.1-1.8-1.2c-0.4,0.4-1,0.7-1.4,1.2C25.5,18,16.8,26.8,8,35.4c-1.5,1.4-1.3,2.4,0.1,3.4c1.8,1.4,2.6,2.8,0.2,4.4
		c-2,1.3-1.5,2.5,0.1,4.1c8.5,8.4,16.9,16.8,25.3,25.3c1.5,1.6,2.4,1.8,4.1,0.1c8.4-8.6,16.9-17.1,25.5-25.5
		C64.8,45.8,65.3,44.7,63.4,43.4z M9.9,35.7c8.3-8.2,16.5-16.4,24.7-24.7c1-1,1.5-1,2.5,0c8.3,8.3,16.5,16.6,24.9,24.9
		c0.9,0.9,0.8,1.5,0,2.3C53.6,46.5,45.3,54.8,37,63c-0.3,0.3-0.7,0.6-1.2,1c-0.5-0.5-0.9-0.8-1.3-1.2c-8.2-8.1-16.3-16.3-24.5-24.4
		C8.9,37.5,8.7,36.9,9.9,35.7z M61.5,46.8c-8.1,8-16.1,16-24.1,24.1c-1.2,1.2-1.9,1.4-3.2,0.1c-8-8.2-16.2-16.2-24.2-24.3
		c-0.5-0.5-1.6-0.9-0.9-1.8c0.6-0.9,1.4-1.6,2.2-2.5c0.8,0.8,1.4,1.3,1.9,1.8c6.8,6.8,13.6,13.5,20.3,20.4c1.7,1.8,2.8,2,4.6,0.1
		c6.7-7,13.7-13.8,20.5-20.7c1-1,1.6-1.7,3-0.3C62.8,44.9,62.8,45.6,61.5,46.8z"/>
	<path class="st0" d="M180,48.3c-1.2-2.8-3.1-5.6,0-8.5c0.2-0.2,0.2-0.7,0.3-1.1c0.9-5.8-1.7-8.3-8.1-8.1c-2,0-2.8,0.7-2.8,2.7
		c0.1,2.6,0,5.2,0,7.9c0,2.3-0.1,4.7,0,7c0,1.3-0.7,3.2,1.7,3.2c2.4,0,1.4-1.8,1.5-3c0.1-1-0.1-1.9,0.1-2.9c0.1-0.8-0.6-2,0.8-2.1
		c1.1-0.1,1.2,1.1,1.5,1.8c0.6,1.5,1.3,3,1.9,4.6c0.5,1.3,1.1,2,2.6,1.5C181.3,50.5,180.4,49.3,180,48.3z M174.3,39.9
		c-2.7-0.1-1.2-2-1.6-3c0-1.5-0.6-3.1,1.9-3c2,0.1,2.4,1.2,2.4,2.8C177,38.6,176.7,40,174.3,39.9z"/>
	<path class="st1" d="M105.8,45.3c0,1.4-0.1,2.8,0,4.2c0.1,1.2-0.4,1.8-1.6,1.8c-1.2,0-1.7-0.5-1.7-1.7c0-5.7,0-11.4,0-17.1
		c0-1.2,0.5-1.7,1.7-1.7c1.3,0,1.7,0.7,1.6,1.8c0,1.4,0,2.7,0,4.4c1.8-1.3,2.2-3.2,3.1-4.8c0.7-1.2,1.4-1.7,2.8-1
		c1.5,0.8,0.9,1.8,0.2,2.6c-4,4.9-4.1,9.7,0,14.6c0.6,0.8,1.3,1.9-0.1,2.7c-1.4,0.8-2.3,0.2-3-1.2c-0.7-1.6-1.6-3-2.5-4.5
		C106.1,45.3,106,45.3,105.8,45.3z"/>
	<path d="M165.9,35.1c-0.1-2.9-2.4-4.6-5.4-4.4c-2.9,0.2-4.6,1.9-4.7,4.8c-0.1,1.7,0,3.5,0,5.2c0,1.9-0.1,3.9,0,5.8
		c0.1,2.9,1.8,4.6,4.7,4.8c3.2,0.2,5.1-1.2,5.3-4.4C166,43,166,39,165.9,35.1z M162.6,46.3c-0.1,1.1-0.8,1.8-1.9,1.7
		c-1-0.1-1.6-0.8-1.6-1.7c-0.1-3.5-0.1-6.9,0-10.4c0-0.9,0.5-1.7,1.6-1.7c1.2-0.1,1.9,0.7,1.9,1.7c0.1,1.8,0,3.7,0,5.5h0
		C162.6,43,162.7,44.6,162.6,46.3z"/>
	<path class="st2" d="M98.9,49.6c-1-5.8-1.9-11.6-2.9-17.4c-0.3-1.9-1.9-1.3-3-1.4c-1.5-0.1-2.2,0.7-2.4,2.2
		C89.8,38,88.9,43,88.2,48.1c-0.2,1.1-1.3,2.5,0.8,3c2,0.4,2.1-0.8,2.4-2.3c0.2-1.6,2.3-2.5,3.4-1.6c0.8,0.7,0.5,1.8,0.8,2.7
		c0.3,1.1,0.9,1.4,1.9,1.3C98.4,51.2,99,50.7,98.9,49.6z M93.2,43.9c-0.8,0-1-0.5-0.9-1.1c0.2-1.5,0.5-3,0.8-4.9
		c1.3,1.6,0.8,3.4,1.3,4.9C94.7,43.8,93.9,43.8,93.2,43.9z"/>
	<path class="st0" d="M116.2,41.2c0-2.8,0.1-5.6,0-8.4c-0.1-1.7,0.6-2.2,2.2-2.1c1.4,0.1,2.9,0.1,4.3,0c1.3-0.1,1.6,0.7,1.6,1.8
		c0,1.2-0.5,1.9-1.7,1.7c-2.9-0.6-3.2,1-3.1,3.4c0.1,1.5,0.4,2.1,1.9,1.9c1.3-0.2,1.6,0.6,1.6,1.8c0,1.2-0.4,1.8-1.7,1.7
		c-3.2-0.3-1.5,2.2-1.8,3.4c-0.4,1.7,0.7,1.8,2,1.8c1.1,0,2.6-0.7,2.7,1.5c0.1,2.3-1.6,1.7-2.8,1.8c-5.4,0.1-5.4,0.1-5.4-5.2
		C116.2,44.5,116.2,42.8,116.2,41.2z"/>
	<path class="st0" d="M133,30.7c1.1-0.1,2.1,0.2,3,0.9c1.1,0.9,2.3,2.2,1.5,3.4c-0.6,0.9-2.3,0.9-3.3-0.4c-0.6-0.7-1.5-0.6-2.1-0.2
		c-0.8,0.6-0.8,1.4-0.4,2.4c0.8,1.8,2.4,2.8,3.6,4.1c1.6,1.7,2.7,3.5,2.5,5.9c-0.2,2.6-1.8,4-4.2,4.4c-2.4,0.4-4.1-0.8-5.1-2.9
		c-0.4-0.8-0.8-1.9,0.2-2.3c0.8-0.4,1.9-0.6,2.6,0.4c0.6,1,1.2,2.4,2.6,1.1c1.3-1.2,0.5-2.5-0.4-3.6c-1.4-1.6-3-3-4.3-4.7
		c-1.4-1.8-1.4-4-0.5-6.1C129.5,31.4,131.1,30.8,133,30.7z"/>
	<path class="st0" d="M184.8,40.7c0-2.7,0-5.4,0-8.1c0-1.3,0.4-2,1.8-1.9c1.4,0.1,2.9,0.1,4.3,0c1.3-0.1,2.1,0.3,2.1,1.7
		c0,1.4-0.7,1.8-2,1.8c-2.7,0.1-3.6,1.7-3,4.3c0.2,1,0.9,0.9,1.5,0.9c1.4-0.1,2.3,0.3,2.2,1.9c0,1.4-0.9,1.7-2.1,1.7
		c-2.7-0.1-1.3,2-1.5,3.1c-0.3,1.4,0.2,2.2,1.8,2c0.7-0.1,1.4,0,2,0c0.9,0.1,1,0.7,1,1.5c0,0.7,0,1.4-0.8,1.7
		c-0.3,0.1-0.6,0.1-0.9,0.1c-6.3,0.8-6.6,0.5-6.6-5.8C184.8,43.9,184.8,42.3,184.8,40.7z"/>
	<path class="st3" d="M145.2,42.4c0-2-0.1-4.1,0-6.1c0.1-1.8-0.4-2.4-2.2-2.3c-1.2,0.1-2.6,0.4-2.7-1.6c0-2.2,1.5-1.8,2.8-1.8
		c2.6,0,5.2,0,7.8,0c1.2,0,2.4-0.1,2.4,1.7c0,1.7-1,2-2.3,1.7c-2.3-0.4-2.7,0.7-2.6,2.8c0.1,4.1,0,8.3,0.1,12.5
		c0,1.2-0.2,2.1-1.7,2.1c-1.5,0-1.7-0.8-1.7-2C145.2,47,145.2,44.7,145.2,42.4z"/>
	<path class="st2" d="M76.6,40.9c0-2.7,0.1-5.4,0-8.1c-0.1-1.7,0.6-2.3,2.2-2.2c1.3,0.1,2.7,0.1,4.1,0c1.3-0.1,2,0.2,2,1.7
		c0,1.4-0.6,1.8-2,1.8c-0.9,0-2.4-0.5-2.7,0.4c-0.4,1.3-0.2,2.9-0.1,4.3c0.1,0.8,0.9,0.6,1.4,0.5c1.2-0.1,2.1,0.2,2.1,1.7
		c0,1.4-0.6,2-1.9,1.8c-1.5-0.2-1.8,0.6-1.7,1.8c0.1,1.5-0.1,3.1,0,4.6c0.1,1.4-0.4,2-1.8,2c-1.4,0-1.7-0.7-1.7-2
		C76.6,46.5,76.6,43.7,76.6,40.9z"/>
	<path class="st4" d="M39,36.9c-0.1-1.4-1.8-2.3-3.2-3.1c-1.3,1-3.1,1.9-3,3.3c0.1,1.5,1.6,3.3,3.2,3.2C37.4,40.1,39.2,38.5,39,36.9
		z M35.6,38.2c-0.5-0.1-1.1-0.6-0.9-1.2c0.1-0.5,0.7-0.8,1-1.1c0.7,0.3,1.3,0.6,1.2,1.2C36.9,37.8,36.3,38.3,35.6,38.2z"/>
	<path class="st4" d="M46.7,35.7c-3.1-3.1-6.3-6.2-9.5-9.4c-1-1-1.8-1.2-2.9-0.1c-3.1,3.2-6.3,6.4-9.4,9.4c-1.1,1.1-1.1,1.8,0,2.9
		c3.1,3.1,6.2,6.1,9.2,9.3c1.2,1.3,2.1,1.2,3.3,0c3-3.1,6-6,9-9.1c0.5-0.5,1.1-0.9,1.2-1.9C47.4,36.6,47.1,36.1,46.7,35.7z
		 M44.6,38.4c-2.6,2.5-5.1,5-7.6,7.6c-0.3,0.3-0.7,0.6-1.1,1.1c-0.5-0.5-0.9-0.8-1.3-1.2c-2.5-2.5-4.9-5-7.4-7.4
		c-1.2-1.1-1-1.7,0.1-2.7c2.5-2.4,5-4.9,7.4-7.4c0.9-1,1.5-1.1,2.5,0c2.5,2.6,5,5.1,7.6,7.6C45.7,36.9,45.5,37.4,44.6,38.4z"/>
	<path class="st4" d="M55.1,35.5c-6-5.8-11.8-11.8-17.7-17.6c-0.5-0.5-0.9-1.1-1.8-1.1c-0.3,0.2-0.7,0.4-1,0.8
		c-6.1,6.1-12.2,12.2-18.3,18.3c-1.2,1.2-0.7,1.9,0.2,2.9c5.9,5.9,11.8,11.8,17.6,17.7c1.4,1.4,2.2,1.2,3.5-0.1
		c5.8-5.9,11.6-11.7,17.4-17.5C56.3,37.5,56.4,36.8,55.1,35.5z M53.1,38.4c-5.3,5.4-10.7,10.7-16,16.1c-1.1,1.2-1.7,0.9-2.7-0.1
		C29.2,49,23.9,43.7,18.6,38.5c-1.3-1.2-1-1.9,0.1-3c5.3-5.2,10.5-10.4,15.6-15.6c1.1-1.1,1.7-1.4,3-0.1
		c5.2,5.4,10.5,10.6,15.8,15.9c0.4,0.4,0.8,0.8,1.1,1.2C54.1,37.7,53.5,38,53.1,38.4z"/>
	<path d="M39,36.9c-0.1-1.4-1.8-2.3-3.2-3.1c-1.3,1-3.1,1.9-3,3.3c0.1,1.5,1.6,3.3,3.2,3.2C37.4,40.1,39.2,38.5,39,36.9z M35.6,38.2
		c-0.5-0.1-1.1-0.6-0.9-1.2c0.1-0.5,0.7-0.8,1-1.1c0.7,0.3,1.3,0.6,1.2,1.2C36.9,37.8,36.3,38.3,35.6,38.2z"/>
	<path d="M46.7,35.7c-3.1-3.1-6.3-6.2-9.5-9.4c-1-1-1.8-1.2-2.9-0.1c-3.1,3.2-6.3,6.4-9.4,9.4c-1.1,1.1-1.1,1.8,0,2.9
		c3.1,3.1,6.2,6.1,9.2,9.3c1.2,1.3,2.1,1.2,3.3,0c3-3.1,6-6,9-9.1c0.5-0.5,1.1-0.9,1.2-1.9C47.4,36.6,47.1,36.1,46.7,35.7z
		 M44.6,38.4c-2.6,2.5-5.1,5-7.6,7.6c-0.3,0.3-0.7,0.6-1.1,1.1c-0.5-0.5-0.9-0.8-1.3-1.2c-2.5-2.5-4.9-5-7.4-7.4
		c-1.2-1.1-1-1.7,0.1-2.7c2.5-2.4,5-4.9,7.4-7.4c0.9-1,1.5-1.1,2.5,0c2.5,2.6,5,5.1,7.6,7.6C45.7,36.9,45.5,37.4,44.6,38.4z"/>
	<path d="M55.1,35.5c-6-5.8-11.8-11.8-17.7-17.6c-0.5-0.5-0.9-1.1-1.8-1.1c-0.3,0.2-0.7,0.4-1,0.8c-6.1,6.1-12.2,12.2-18.3,18.3
		c-1.2,1.2-0.7,1.9,0.2,2.9c5.9,5.9,11.8,11.8,17.6,17.7c1.4,1.4,2.2,1.2,3.5-0.1c5.8-5.9,11.6-11.7,17.4-17.5
		C56.3,37.5,56.4,36.8,55.1,35.5z M53.1,38.4c-5.3,5.4-10.7,10.7-16,16.1c-1.1,1.2-1.7,0.9-2.7-0.1C29.2,49,23.9,43.7,18.6,38.5
		c-1.3-1.2-1-1.9,0.1-3c5.3-5.2,10.5-10.4,15.6-15.6c1.1-1.1,1.7-1.4,3-0.1c5.2,5.4,10.5,10.6,15.8,15.9c0.4,0.4,0.8,0.8,1.1,1.2
		C54.1,37.7,53.5,38,53.1,38.4z"/>
	<path class="st5" d="M39,36.9c-0.1-1.4-1.8-2.3-3.2-3.1c-1.3,1-3.1,1.9-3,3.3c0.1,1.5,1.6,3.3,3.2,3.2C37.4,40.1,39.2,38.5,39,36.9
		z M35.6,38.2c-0.5-0.1-1.1-0.6-0.9-1.2c0.1-0.5,0.7-0.8,1-1.1c0.7,0.3,1.3,0.6,1.2,1.2C36.9,37.8,36.3,38.3,35.6,38.2z"/>
	<path class="st5" d="M46.7,35.7c-3.1-3.1-6.3-6.2-9.5-9.4c-1-1-1.8-1.2-2.9-0.1c-3.1,3.2-6.3,6.4-9.4,9.4c-1.1,1.1-1.1,1.8,0,2.9
		c3.1,3.1,6.2,6.1,9.2,9.3c1.2,1.3,2.1,1.2,3.3,0c3-3.1,6-6,9-9.1c0.5-0.5,1.1-0.9,1.2-1.9C47.4,36.6,47.1,36.1,46.7,35.7z
		 M44.6,38.4c-2.6,2.5-5.1,5-7.6,7.6c-0.3,0.3-0.7,0.6-1.1,1.1c-0.5-0.5-0.9-0.8-1.3-1.2c-2.5-2.5-4.9-5-7.4-7.4
		c-1.2-1.1-1-1.7,0.1-2.7c2.5-2.4,5-4.9,7.4-7.4c0.9-1,1.5-1.1,2.5,0c2.5,2.6,5,5.1,7.6,7.6C45.7,36.9,45.5,37.4,44.6,38.4z"/>
	<path class="st6" d="M39,36.9c-0.1-1.4-1.8-2.3-3.2-3.1c-1.3,1-3.1,1.9-3,3.3c0.1,1.5,1.6,3.3,3.2,3.2C37.4,40.1,39.2,38.5,39,36.9
		z M35.6,38.2c-0.5-0.1-1.1-0.6-0.9-1.2c0.1-0.5,0.7-0.8,1-1.1c0.7,0.3,1.3,0.6,1.2,1.2C36.9,37.8,36.3,38.3,35.6,38.2z"/>
	<path class="st6" d="M46.7,35.7c-3.1-3.1-6.3-6.2-9.5-9.4c-1-1-1.8-1.2-2.9-0.1c-3.1,3.2-6.3,6.4-9.4,9.4c-1.1,1.1-1.1,1.8,0,2.9
		c3.1,3.1,6.2,6.1,9.2,9.3c1.2,1.3,2.1,1.2,3.3,0c3-3.1,6-6,9-9.1c0.5-0.5,1.1-0.9,1.2-1.9C47.4,36.6,47.1,36.1,46.7,35.7z
		 M44.6,38.4c-2.6,2.5-5.1,5-7.6,7.6c-0.3,0.3-0.7,0.6-1.1,1.1c-0.5-0.5-0.9-0.8-1.3-1.2c-2.5-2.5-4.9-5-7.4-7.4
		c-1.2-1.1-1-1.7,0.1-2.7c2.5-2.4,5-4.9,7.4-7.4c0.9-1,1.5-1.1,2.5,0c2.5,2.6,5,5.1,7.6,7.6C45.7,36.9,45.5,37.4,44.6,38.4z"/>
	<path class="st5" d="M39,36.9c-0.1-1.4-1.8-2.3-3.2-3.1c-1.3,1-3.1,1.9-3,3.3c0.1,1.5,1.6,3.3,3.2,3.2C37.4,40.1,39.2,38.5,39,36.9
		z M35.6,38.2c-0.5-0.1-1.1-0.6-0.9-1.2c0.1-0.5,0.7-0.8,1-1.1c0.7,0.3,1.3,0.6,1.2,1.2C36.9,37.8,36.3,38.3,35.6,38.2z"/>
	<path class="st7" d="M39,36.9c-0.1-1.4-1.8-2.3-3.2-3.1c-1.3,1-3.1,1.9-3,3.3c0.1,1.5,1.6,3.3,3.2,3.2C37.4,40.1,39.2,38.5,39,36.9
		z M35.6,38.2c-0.5-0.1-1.1-0.6-0.9-1.2c0.1-0.5,0.7-0.8,1-1.1c0.7,0.3,1.3,0.6,1.2,1.2C36.9,37.8,36.3,38.3,35.6,38.2z"/>
</g>
</svg>
