<?xml version="1.0" encoding="utf-8"?>
<!-- Generator: Adobe Illustrator 22.0.0, SVG Export Plug-In . SVG Version: 6.00 Build 0)  -->
<svg version="1.1" id="Layer_1" xmlns="http://www.w3.org/2000/svg" xmlns:xlink="http://www.w3.org/1999/xlink" x="0px" y="0px"
	 viewBox="0 0 486 486" style="enable-background:new 0 0 486 486;" xml:space="preserve">
<path d="M449,204c1.6-10.6-5.7-20.7-16.4-22.3l-119-17.4l-53-107.4c-1.9-3.9-5.2-7.3-9.1-9.2c-9.7-4.7-21.4-0.7-26.2,9.2l-53,107.4
	L53.7,181.7c-4.4,0.6-8.4,2.5-11.4,5.7c-7.6,7.8-7.3,20.3,0.4,27.8l86,83.7L108.4,417c-0.7,4.4-0.1,8.8,2,12.6
	c5,9.6,16.9,13.3,26.5,8.3l106.3-56l106,56c3.9,2.1,8.5,2.9,12.9,2c10.7-1.9,17.8-12.1,15.8-22.9l-20.4-118.2l86-83.8
	C446.4,212.1,448.4,208.3,449,204L449,204z"/>
</svg>
